<?xml version="1.0" encoding="utf-8"?>
<!-- Generator: Adobe Illustrator 24.3.0, SVG Export Plug-In . SVG Version: 6.00 Build 0)  -->
<!DOCTYPE svg PUBLIC "-//W3C//DTD SVG 1.1//EN" "http://www.w3.org/Graphics/SVG/1.1/DTD/svg11.dtd" [
	<!ENTITY ns_extend "http://ns.adobe.com/Extensibility/1.0/">
	<!ENTITY ns_ai "http://ns.adobe.com/AdobeIllustrator/10.0/">
	<!ENTITY ns_graphs "http://ns.adobe.com/Graphs/1.0/">
	<!ENTITY ns_vars "http://ns.adobe.com/Variables/1.0/">
	<!ENTITY ns_imrep "http://ns.adobe.com/ImageReplacement/1.0/">
	<!ENTITY ns_sfw "http://ns.adobe.com/SaveForWeb/1.0/">
	<!ENTITY ns_custom "http://ns.adobe.com/GenericCustomNamespace/1.0/">
	<!ENTITY ns_adobe_xpath "http://ns.adobe.com/XPath/1.0/">
]>
<svg version="1.1" id="Calque_1" xmlns:x="&ns_extend;" xmlns:i="&ns_ai;" xmlns:graph="&ns_graphs;"
	 xmlns="http://www.w3.org/2000/svg" xmlns:xlink="http://www.w3.org/1999/xlink" x="0px" y="0px" viewBox="0 0 155.9 25.5"
	 style="enable-background:new 0 0 155.9 25.5;" xml:space="preserve">
<style type="text/css">
	.st0{fill:#FFFFFF;}
</style>
<metadata>
	<sfw  xmlns="&ns_sfw;">
		<slices></slices>
		<sliceSourceBounds  bottomLeftOrigin="true" height="23.8" width="153.7" x="0.1" y="0.1"></sliceSourceBounds>
	</sfw>
</metadata>
<g>
	<path class="st0" d="M109,6h-6.7V2.1c6.3,0,11.7,0,18.1,0V6h-6.7v18H109V6z"/>
	<path class="st0" d="M151.2,7.3c-1.8-1.6-3.7-2.1-5.9-2.1c-2.8,0-4.7,0.9-4.7,2.6c0,1.8,2,2.6,4.8,2.8c4.1,0.4,9.5,1.3,9.4,6.9
		c0,4.1-3.7,7-9.5,7c-3.6,0-7.2-0.8-10.1-4.1l2.4-3.3c2.1,2.3,5.2,3.2,7.8,3.3c2.2,0,4.7-0.8,4.7-2.9c0-2-1.8-2.7-5.1-3
		c-4.2-0.4-9-1.7-9.1-6.6c0-4.9,5.1-6.7,9.2-6.7c3.4,0,6.1,0.8,8.6,3L151.2,7.3z"/>
	<path class="st0" d="M127.4,6.5c1.6,0,2.9-1.3,2.9-2.8c0-1.6-1.3-2.8-2.9-2.8c-1.6,0-2.9,1.3-2.9,2.8
		C124.6,5.2,125.9,6.5,127.4,6.5z"/>
	<path class="st0" d="M127.4,15.3c1.6,0,2.9-1.3,2.9-2.8c0-1.6-1.3-2.8-2.9-2.8c-1.6,0-2.9,1.3-2.9,2.8
		C124.6,14,125.9,15.3,127.4,15.3z"/>
	<path class="st0" d="M127.4,24.1c1.6,0,2.9-1.3,2.9-2.8s-1.3-2.8-2.9-2.8c-1.6,0-2.9,1.3-2.9,2.8S125.9,24.1,127.4,24.1z"/>
	<path class="st0" d="M21.3,24h-6l-6.8-7.6H5.7V24H1.1V2c4.6,0,8,0,11.4,0c5.1,0,7.8,3.4,7.8,7.1c0,3.1-1.9,6-6.2,6.7l6.8,7.5
		L21.3,24z M5.7,5.9v6.6h5.7c2.6,0,4.2-1.2,4.2-3.3c0-2-1.7-3.3-4.2-3.3L5.7,5.9L5.7,5.9z"/>
	<path class="st0" d="M28.8,14.7c0.4,3.4,3.2,5.6,7.3,5.6c2.3,0,5.1-0.9,6.4-2.4l3,2.9c-2.3,2.5-6.1,3.8-9.6,3.8
		c-7.3,0-12-4.6-12-11.7c0-6.7,4.7-11.5,11.7-11.5c7.2,0,12,4.3,11.2,13.3H28.8z M42.4,10.8c-0.3-3.5-2.8-5.3-6.6-5.3
		c-3.4,0-6.2,1.8-6.9,5.3H42.4z"/>
	<path class="st0" d="M72.5,1.9l-9.4,22.2H58L48.5,1.9h5.1l3,7.1l3.9,10.2l3.5-9.4l3.3-8H72.5z"/>
	<path class="st0" d="M93.4,1.9H98c0,7.3,0,14.7,0,22.1h-4.4l-0.2-3.6c-1.5,2.8-4.9,4.2-7.7,4.2c-6.5,0-11.4-4.1-11.4-11.6
		c0-7.4,5.1-11.5,11.5-11.5c3.2,0,6.2,1.5,7.6,4L93.4,1.9z M78.9,12.9c0,4.6,3.2,7.3,7.2,7.3c9.6,0,9.6-14.6,0-14.6
		C82.1,5.6,78.9,8.4,78.9,12.9z"/>
</g>
</svg>
